<svg xmlns="http://www.w3.org/2000/svg" width="32" height="32" fill="none"><path fill="#9D9D9D" d="M25.01 8.658A21.3 21.3 0 0 0 19.718 7a.08.08 0 0 0-.085.041c-.229.41-.482.945-.66 1.366a19.6 19.6 0 0 0-5.943 0c-.178-.43-.44-.956-.67-1.366a.08.08 0 0 0-.084-.04 21.2 21.2 0 0 0-5.293 1.656.1.1 0 0 0-.034.03c-3.371 5.082-4.295 10.04-3.842 14.935a.1.1 0 0 0 .034.061 21.5 21.5 0 0 0 6.493 3.312c.033.01.07-.002.09-.03.5-.69.947-1.416 1.329-2.18a.083.083 0 0 0-.045-.116c-.707-.27-1.38-.6-2.028-.975a.085.085 0 0 1-.008-.14q.205-.155.402-.318a.08.08 0 0 1 .084-.012c4.255 1.96 8.862 1.96 13.067 0a.08.08 0 0 1 .085.01q.196.165.404.32a.085.085 0 0 1-.007.14q-.97.572-2.03.974a.084.084 0 0 0-.044.117c.39.763.837 1.49 1.328 2.18.02.028.057.04.09.03a21.4 21.4 0 0 0 6.503-3.312.08.08 0 0 0 .034-.06c.542-5.66-.908-10.576-3.844-14.935a.07.07 0 0 0-.034-.031M11.688 20.642c-1.28 0-2.336-1.187-2.336-2.645s1.035-2.644 2.336-2.644c1.312 0 2.358 1.197 2.337 2.644 0 1.458-1.035 2.645-2.337 2.645m8.64 0c-1.281 0-2.337-1.187-2.337-2.645s1.035-2.644 2.337-2.644c1.311 0 2.357 1.197 2.336 2.644 0 1.458-1.025 2.645-2.336 2.645"/></svg>