<svg xmlns="http://www.w3.org/2000/svg" width="112" height="80" fill="none"><path fill="#fff" d="M76.78 28.253q-3.219-5.654-8.734-8.954Q62.532 16 56 16t-12.047 3.3q-5.515 3.299-8.734 8.953T32 40.6q0 8.04 4.578 14.463t11.828 8.889q.843.16 1.25-.224a1.27 1.27 0 0 0 .406-.96l-.016-1.73q-.015-1.635-.016-2.851l-.718.127q-.688.13-1.735.113a13 13 0 0 1-2.172-.225 4.8 4.8 0 0 1-2.093-.96 4.06 4.06 0 0 1-1.375-1.97l-.313-.737q-.312-.736-.984-1.633t-1.36-1.217l-.218-.16a2.3 2.3 0 0 1-.406-.386 1.8 1.8 0 0 1-.281-.448q-.094-.225.156-.37.25-.143.906-.142l.625.095q.625.128 1.547.77.922.64 1.515 1.664.719 1.313 1.735 2.003 1.016.688 2.047.688 1.03 0 1.78-.16t1.407-.48q.281-2.147 1.53-3.3a21 21 0 0 1-3.202-.577q-1.422-.384-2.937-1.25a8.5 8.5 0 0 1-2.516-2.145q-1-1.282-1.64-3.364t-.641-4.805q0-3.876 2.469-6.6-1.156-2.913.218-6.533.907-.289 2.688.432 1.781.72 2.61 1.233.828.513 1.328.865a21.7 21.7 0 0 1 6-.832q3.093 0 6 .832l1.188-.768q1.218-.77 2.874-1.41t2.532-.352q1.405 3.62.25 6.534 2.468 2.724 2.469 6.6-.001 2.722-.641 4.82t-1.656 3.364a8.8 8.8 0 0 1-2.531 2.13q-1.515.865-2.938 1.25a21 21 0 0 1-3.203.577q1.625 1.44 1.625 4.548v6.758q0 .576.39.961.391.384 1.235.224 7.25-2.466 11.828-8.89Q80 48.644 80 40.6q-.002-6.693-3.22-12.347"/></svg>