<svg xmlns="http://www.w3.org/2000/svg" width="100" height="100" fill="none"><path stroke="#fff" stroke-linecap="square" stroke-width="4" d="M62.792 46.71a8.574 8.574 0 1 0 0-17.147 8.574 8.574 0 0 0 0 17.147Zm15.86 24.289c0-8.76-7.1-15.86-15.86-15.86s-15.86 7.1-15.86 15.86"/><path fill="#151515" d="M42.883 55.714c-10.316 0-18.74 8.1-19.26 18.286-.029.552.422 1 .974 1h36.571a.96.96 0 0 0 .975-1c-.52-10.186-8.944-18.286-19.26-18.286"/><g stroke="#fff" stroke-linecap="square" stroke-width="4" filter="url(#a)"><path fill="#151515" d="M42.883 48.572c5.996 0 10.857-4.861 10.857-10.858 0-5.996-4.861-10.857-10.857-10.857s-10.857 4.861-10.857 10.858c0 5.996 4.86 10.857 10.857 10.857Z"/><path d="M62.168 75c0-10.651-8.634-19.286-19.285-19.286S23.597 64.35 23.597 75"/></g><defs><filter id="a" width="82.572" height="92.143" x="3.597" y="6.857" color-interpolation-filters="sRGB" filterUnits="userSpaceOnUse"><feFlood flood-opacity="0" result="BackgroundImageFix"/><feColorMatrix in="SourceAlpha" result="hardAlpha" values="0 0 0 0 0 0 0 0 0 0 0 0 0 0 0 0 0 0 127 0"/><feOffset dx="2" dy="2"/><feGaussianBlur stdDeviation="10"/><feComposite in2="hardAlpha" operator="out"/><feColorMatrix values="0 0 0 0 0.0823529 0 0 0 0 0.0823529 0 0 0 0 0.0823529 0 0 0 1 0"/><feBlend in2="BackgroundImageFix" result="effect1_dropShadow_1_612"/><feBlend in="SourceGraphic" in2="effect1_dropShadow_1_612" result="shape"/></filter></defs></svg>