<svg xmlns="http://www.w3.org/2000/svg" width="800" height="800" version="1.0" viewBox="0 0 600 600"><path d="M173.8 100.8c-4.6.3-6 1.3-3.8 2.7.6.4 10.9.7 22.8.7 11.9.1 22.7.5 23.9 1.1 3.1 1.4 5.1 6.2 4.7 11-.6 5.9-1.1 8.3-2.2 10.4-.6 1-1 2.2-1.1 2.8 0 1.1-2.5 8.2-4.6 13-.6 1.6-2.7 6.8-4.5 11.5-1.7 4.7-3.6 9.4-4.1 10.5-.4 1.1-3.8 9.9-7.4 19.5s-7.3 19.3-8.2 21.5c-.8 2.2-1.9 4.9-2.3 6s-1.5 3.8-2.3 6c-.9 2.2-6.2 16.1-11.7 31-5.6 14.8-15.7 40.9-22.5 58-13.5 34.2-15.2 38.7-23.2 62-7 20.3-12.9 40.8-14.7 51-.3 1.6-.8 3.9-1 5.1-.8 4-2 17.9-2 23.4.1 19.5 4.8 33.8 14.1 42.7 4 3.8 10.9 8.2 14.5 9.2.4.2 2.9 1 5.5 2 7.1 2.6 23.6 2.1 32.3-.9 16.6-5.8 36.8-24.5 56.9-52.5 2.7-3.9 5.5-7.5 6.1-8.2.5-.7 1-1.6 1-2.2 0-.5.3-1.1.8-1.3.4-.2 4-4.8 8.1-10.3 28.4-38.2 47.5-52.4 70.8-52.7 17.1-.1 28 4 38.8 14.9 8.5 8.4 20.1 29 21.9 38.6.2 1.5.7 3.1 1.1 3.7.6 1 3 9.8 3.9 14.2.2 1.2 1.7 6.6 3.1 11.8 3.3 11.6 3.9 23.1 1.6 27.5-2.1 4-4.8 6.3-9.6 8.5-7 3.1-7.7 3.2-22.5 3.6-8 .2-14.8.3-15.2.4-.5 0-.8.7-.8 1.5 0 1.2 1.7 1.5 8.8 1.5 11.6.1 113.1.1 125.5 0 7.9 0 9.7-.3 9.7-1.5 0-.9-1-1.5-2.2-1.6-1.3 0-7.7-.2-14.3-.3-20.1-.4-25.8-3.3-32.2-16.1-1.6-3.2-9.1-25.6-9.2-27.5 0-.3-1.4-4.4-3-9.3-1.6-4.8-2.7-8.7-2.4-8.7s0-.7-.7-1.5-1-1.5-.7-1.5-.1-1.7-.9-3.7c-.9-2-1.7-4.4-1.9-5.3-.2-1-2.4-8.7-5-17.3-2.6-8.7-4.8-16.3-4.9-16.9-.1-.7-.4-1.8-.7-2.3-.5-.9-1.6-4.2-2.5-8-.5-2.4-9.6-34.2-10.1-35.5-.3-.8-.7-2.2-.9-3s-1.5-5.6-2.9-10.5c-1.4-5-2.8-9.9-3-10.9s-1.6-5.8-2.9-10.5c-2-7-6.5-23.5-8.2-30.1-2.7-10.5-5.3-20-5.7-20.8-.3-.4-.8-2-1.1-3.4-.2-1.3-1.6-6.9-3.1-12.4-1.4-5.4-2.8-10.6-3-11.4-.3-.8-1.8-6.7-3.5-13s-3.5-13.1-4-15-2.4-9.4-4.3-16.5c-17.1-63.4-17.6-65.9-14.2-73.8 2.6-6.3 6.5-7.4 25.8-7.5 23.6-.1 22.7 0 22.7-1.7 0-1.1-1.2-1.5-4.7-1.6-21-.2-204.8-.3-208.5-.1m85.2 66.6c-.1 29.2-.5 55.1-1 57.6-.4 2.5-1.1 5.8-1.3 7.5-2.6 14.5-11.1 26.1-23.5 31.7-3.6 1.7-7.6 3.1-8.8 3.3-1.1.1-2.5.5-3.1.8-1.9 1.2-28.1 2.2-45 1.8l-3.3-.1 2.6-7.3c1.4-3.9 2.9-8.1 3.5-9.2.5-1.1 2.2-5.6 3.8-10 3.6-10 15.3-41.6 22.1-59.5 2.9-7.4 5.3-14 5.4-14.5.2-.6.6-1.7.9-2.5s2.2-6 4.2-11.5c8.1-22.3 14.9-33.1 23.3-37.1 4.6-2.2 17.2-5.3 19-4.6 1 .3 1.2 11.2 1.2 53.6m14-52.9c8.3 1.4 15.8 5.4 21.1 11.2 3.3 3.6 8.2 14.1 10.2 21.8.9 3.3 4.5 16.8 8.2 30 3.6 13.2 7.7 28.3 9.1 33.5s3.9 14.4 5.6 20.5c1.6 6 4.1 15 5.4 20 1.4 4.9 2.7 9.9 3 11 1.7 5.9 1.6 7.5-.2 7.6-11.7.4-27.7-.3-33.4-1.5-10.3-2-20.5-7.2-26.1-13.3-3.8-4.2-9.4-14.4-10.4-19.2-.3-1.1-.7-3.1-1-4.4-.3-1.2-.8-3.6-1.2-5.2-.6-3.3-1.4-110.3-.8-112.1.3-1.1 3.2-1.1 10.5.1m-58 160c3 .5 5.7.9 6 1 5.6 1.3 7.7 2 12.1 4.2 7.2 3.4 11.3 6.7 15.4 12.3 3.5 4.8 8.1 15.4 9.1 21.4.3 1.7.8 19.6 1.1 39.7l.5 36.5-7.4 5.9c-4 3.3-10.7 8.8-14.8 12.3-16.8 14.5-15.9 13.7-25.7 20.9-8.8 6.5-10.3 7.4-19 12-12.1 6.3-26.3 6.4-38.7.3-15-7.4-20.8-18.9-20.1-39.8.2-5.3.6-10.8.8-12.2.3-1.4.8-4.4 1.1-6.8.6-4.2 4.1-18.1 5.3-21.2.3-.8.7-2 .8-2.5 3-12.6 10.2-33 29.3-82.5l1-2.6 18.8.2c10.4 0 21.4.5 24.4.9m126.3 8.5c1.5 5.2 2.9 10.6 3.1 12s.5 2.6.6 2.7c.1.2.3.6.4 1 .1.5.6 2.6 1.1 4.8s.9 4.2 1 4.5.7 2.5 1.5 5c1.4 4.8 1.7 5.9 2.4 8.7.3 1 .5 1.9.5 2 .1.2.1.5.1.8.1.3.7 2.3 1.5 4.5s1.2 4 1 4c-.3 0 0 1.2.6 2.7.6 1.6 1.3 3.7 1.4 4.8.2 1.1.7 3.8 1.2 6 .8 3.5.9 10.9.4 18.1 0 1.1-1.1 3.1-2.3 4.3-1.8 2-2.8 2.3-6.7 1.8-5.8-.8-8.6-1.4-12.6-2.7-3.7-1.2-9.8-1.9-18-2-6.4-.1-8.5.2-18 2.6-5.9 1.5-25.8 10.7-28.3 13.1-.7.7-1.8 1.3-2.4 1.3-.5 0-2.1.9-3.5 2s-2.9 2-3.4 2c-.9 0-.4-67.9.6-73 4.9-25.6 17.8-37.3 43.5-39.7 3-.3 5.6-.6 5.7-.7s5.9-.1 13-.1h12.8z"/></svg>