<svg xmlns="http://www.w3.org/2000/svg" width="32" height="32" fill="none"><path fill="#9D9D9D" d="M29 8.486a10.7 10.7 0 0 1-3.064.835 5.32 5.32 0 0 0 2.346-2.933 10.7 10.7 0 0 1-3.388 1.286A5.34 5.34 0 0 0 21.001 6c-2.946 0-5.335 2.374-5.335 5.301q.001.625.139 1.208A15.18 15.18 0 0 1 4.81 6.97a5.29 5.29 0 0 0 1.65 7.078 5.34 5.34 0 0 1-2.415-.663v.067c0 2.568 1.838 4.71 4.278 5.198a5.4 5.4 0 0 1-2.409.091 5.335 5.335 0 0 0 4.983 3.682 10.74 10.74 0 0 1-6.625 2.27q-.646 0-1.272-.075A15.17 15.17 0 0 0 11.177 27c9.811 0 15.177-8.078 15.177-15.084q0-.345-.016-.686A10.8 10.8 0 0 0 29 8.486"/></svg>