<svg xmlns="http://www.w3.org/2000/svg" width="121" height="36" fill="none"><g clip-path="url(#a)"><path fill="#000" d="M0 4.8C0 2.149 2.141 0 4.783 0h111.434C118.859 0 121 2.149 121 4.8v26.4c0 2.651-2.141 4.8-4.783 4.8H4.783C2.14 36 0 33.851 0 31.2z"/><path fill="#fff" fill-opacity=".3" fill-rule="evenodd" d="M0 31.2V4.8C0 2.149 2.141 0 4.783 0h111.434C118.859 0 121 2.149 121 4.8v26.4c0 2.651-2.141 4.8-4.783 4.8H4.783C2.14 36 0 33.851 0 31.2m.717 0V4.8c0-2.253 1.82-4.08 4.066-4.08h111.434a4.073 4.073 0 0 1 4.066 4.08v26.4c0 2.253-1.82 4.08-4.066 4.08H4.783A4.073 4.073 0 0 1 .717 31.2" clip-rule="evenodd"/><path fill="#fff" d="M27.343 18.733c-.012-2.11.94-3.7 2.864-4.873-1.076-1.546-2.703-2.397-4.849-2.561-2.031-.161-4.254 1.188-5.068 1.188-.86 0-2.826-1.133-4.374-1.133-3.193.05-6.587 2.556-6.587 7.654q0 2.261.823 4.666c.734 2.11 3.378 7.28 6.137 7.196 1.443-.034 2.463-1.027 4.34-1.027 1.822 0 2.765 1.027 4.375 1.027 2.783-.04 5.175-4.74 5.872-6.856-3.733-1.766-3.533-5.173-3.533-5.28m-3.24-9.436c1.563-1.862 1.421-3.558 1.375-4.167-1.38.08-2.977.943-3.887 2.005-1.002 1.138-1.59 2.546-1.464 4.133 1.492.114 2.855-.656 3.976-1.97M44.18 26.052h-1.583l-.867-2.748h-3.014l-.827 2.748h-1.541l2.986-9.355h1.845zm-2.712-3.901-.784-2.443q-.124-.375-.468-1.762h-.028q-.136.598-.44 1.762l-.77 2.443zm10.392.445q0 1.72-.922 2.72-.825.888-2.05.888-1.323 0-1.9-.957h-.028V28.8h-1.486v-7.273q-.001-1.083-.055-2.22h1.307l.083 1.068h.027q.744-1.207 2.258-1.207 1.184 0 1.975.943.792.945.792 2.485m-1.514.055q0-.985-.44-1.624-.482-.666-1.294-.666-.55 0-.998.367a1.7 1.7 0 0 0-.584.965q-.07.279-.07.457v1.125q0 .735.448 1.243.447.506 1.163.506.84 0 1.307-.652.468-.653.468-1.721m9.208-.055q0 1.72-.923 2.72-.825.888-2.05.888-1.322 0-1.899-.957h-.028V28.8H53.17v-7.273a46 46 0 0 0-.055-2.22h1.307l.083 1.068h.028q.742-1.207 2.257-1.207 1.183 0 1.976.943.79.945.79 2.485m-1.514.055q0-.985-.44-1.624-.482-.666-1.294-.666-.552 0-.998.367a1.7 1.7 0 0 0-.585.965q-.068.279-.069.457v1.125q.001.735.446 1.243.448.506 1.165.506.84 0 1.307-.652.468-.653.468-1.721m10.116.777q0 1.194-.824 1.943-.905.82-2.527.82-1.497 0-2.404-.584l.344-1.249a4.05 4.05 0 0 0 2.149.598q.84 0 1.308-.383.468-.382.468-1.022 0-.57-.386-.958-.384-.389-1.28-.724-2.436-.916-2.436-2.682 0-1.155.854-1.89.852-.738 2.271-.737 1.267 0 2.106.444l-.372 1.222q-.784-.43-1.776-.43-.783 0-1.224.389a1.12 1.12 0 0 0-.371.847q0 .555.426.916.37.333 1.35.721 1.196.486 1.761 1.138.564.65.563 1.621m4.914-2.997h-1.638v3.275q0 1.25.867 1.25.399 0 .66-.07l.042 1.138q-.44.165-1.156.165-.88 0-1.377-.54-.495-.542-.496-1.82v-3.4h-.976v-1.124h.976V18.07l1.46-.444v1.679h1.638zm7.392 2.192q0 1.555-.88 2.554-.924 1.027-2.452 1.027-1.472 0-2.346-.985t-.874-2.484q0-1.568.901-2.567.9-1 2.429-1 1.473 0 2.368.986.855.955.854 2.47m-1.542.049q0-.934-.398-1.6-.469-.809-1.335-.808-.895 0-1.363.807-.4.668-.398 1.629-.001.933.398 1.6.482.807 1.35.807.852 0 1.334-.821.412-.682.412-1.614m6.373-2.049a2.6 2.6 0 0 0-.468-.041q-.785 0-1.212.597-.37.528-.371 1.332v3.54h-1.486l.014-4.622q0-1.166-.056-2.123h1.295l.054 1.29h.041q.236-.665.744-1.068.495-.361 1.074-.361.206 0 .371.027zm6.647 1.736q0 .402-.054.68H87.43q.026 1 .647 1.527.564.471 1.459.472.99 0 1.804-.32l.232 1.041q-.948.417-2.242.417-1.556 0-2.444-.923t-.888-2.477q0-1.526.827-2.54.866-1.082 2.339-1.082 1.446 0 2.19 1.082.589.86.59 2.123m-1.417-.389q.014-.666-.288-1.152-.387-.625-1.185-.625-.73 0-1.183.611a2.25 2.25 0 0 0-.44 1.166zM37.88 10.789h.766c.74 0 1.173.334 1.173.896v.008c0 .52-.456.862-1.15.862-.71 0-1.163-.281-1.223-.78l-.003-.03h-.819l.004.045c.056.893.848 1.5 2.04 1.5 1.155 0 2.007-.667 2.007-1.56v-.008c0-.727-.445-1.24-1.166-1.33v-.03A1.264 1.264 0 0 0 40.51 9.12v-.007c0-.837-.74-1.414-1.823-1.414-1.129 0-1.865.558-1.92 1.473l-.005.053h.804l.003-.053c.064-.465.457-.738 1.092-.738.646 0 1.02.289 1.02.769v.007c0 .517-.415.874-1.058.874h-.743zm5.5 2.482c.524 0 .976-.27 1.204-.694h.019v.623h.807v-2.72c0-.791-.61-1.301-1.57-1.301-.967 0-1.554.521-1.61 1.2l-.004.041h.763l.007-.034c.067-.315.355-.536.822-.536.5 0 .785.263.785.698v.296l-1.073.064c-.93.056-1.46.476-1.46 1.162v.008c0 .708.526 1.192 1.31 1.192m-.496-1.211v-.008c0-.333.269-.547.755-.577l.964-.06v.307c0 .514-.434.9-1.002.9-.433 0-.717-.217-.717-.562M49.708 9.9v-.645h-2.605V13.2h.807V9.9zm1.518 4.612h.807v-1.976h.018c.232.458.684.743 1.24.743.987 0 1.634-.792 1.634-2.048v-.004c0-1.26-.643-2.047-1.644-2.047-.56 0-.994.285-1.23.754h-.018v-.68h-.807zm1.845-1.93c-.609 0-1.042-.533-1.042-1.35v-.005c0-.82.43-1.353 1.042-1.353.636 0 1.032.513 1.032 1.353v.004c0 .833-.397 1.35-1.032 1.35m3.749 1.935c.77 0 1.18-.315 1.472-1.132l1.465-4.13h-.852l-.99 3.21h-.026l-.99-3.21h-.875l1.431 3.95-.067.187c-.134.383-.344.484-.725.484-.108 0-.202-.015-.265-.03v.634c.097.018.265.037.422.037m5.71-1.237c.964 0 1.603-.492 1.603-1.227v-.007c0-.461-.284-.776-.803-.881v-.03c.422-.098.695-.432.695-.855v-.008c0-.675-.553-1.091-1.457-1.091-.886 0-1.465.42-1.558 1.121l-.004.03h.77l.003-.026c.06-.3.355-.484.777-.484.426 0 .68.199.68.536v.008c0 .352-.242.532-.717.532h-.564v.59h.568c.545 0 .807.18.807.558v.007c0 .36-.306.582-.803.582-.445 0-.736-.173-.826-.492l-.011-.037h-.792l.003.034c.079.697.71 1.14 1.63 1.14m3.154-.079h.796l1.804-2.771h.034v2.77h.803V9.256h-.796l-1.804 2.76h-.038v-2.76h-.799zm8.135-3.945h-3.27V9.9h1.23v3.3h.81V9.9h1.23zm3.035 4.024c.953 0 1.562-.57 1.685-1.197l.011-.04h-.77l-.01.03c-.101.295-.419.543-.897.543-.643 0-1.05-.435-1.065-1.181h2.784v-.274c0-1.185-.677-1.98-1.779-1.98s-1.812.825-1.812 2.059v.003c0 1.245.699 2.037 1.853 2.037m-.037-3.435c.527 0 .912.333.975 1.016H75.82c.075-.66.475-1.016.998-1.016m5.707 3.356h1.809c.852 0 1.382-.443 1.382-1.133v-.007c0-.484-.336-.836-.844-.904v-.03c.377-.071.669-.442.669-.851v-.008c0-.626-.464-1.012-1.23-1.012h-1.786zm.8-2.318V9.855h.818c.389 0 .598.176.598.502v.008c0 .349-.224.517-.68.517zm0 1.718v-1.13h.766c.53 0 .796.176.796.555v.008c0 .375-.247.566-.703.566z"/></g><defs><clipPath id="a"><path fill="#fff" d="M0 0h121v36H0z"/></clipPath></defs></svg>