<svg xmlns="http://www.w3.org/2000/svg" width="129" height="44" fill="none"><g clip-path="url(#a)" filter="url(#b)"><path fill="#000" d="M4 4.8C4 2.149 6.141 0 8.783 0h111.434C122.859 0 125 2.149 125 4.8v26.4c0 2.651-2.141 4.8-4.783 4.8H8.783C6.14 36 4 33.851 4 31.2z"/><path fill="#fff" fill-opacity=".3" fill-rule="evenodd" d="M4 31.2V4.8C4 2.149 6.141 0 8.783 0h111.434C122.859 0 125 2.149 125 4.8v26.4c0 2.651-2.141 4.8-4.783 4.8H8.783C6.14 36 4 33.851 4 31.2m.717 0V4.8c0-2.253 1.82-4.08 4.066-4.08h111.434a4.073 4.073 0 0 1 4.066 4.08v26.4c0 2.253-1.82 4.08-4.066 4.08H8.783a4.073 4.073 0 0 1-4.066-4.08" clip-rule="evenodd"/><path fill="#fff" d="M65.31 19.558c-2.154 0-3.933 1.687-3.933 4.001 0 2.296 1.76 4.002 3.933 4.002s3.932-1.688 3.932-4.002-1.76-4.001-3.932-4.001m0 6.41c-1.18 0-2.21-1.005-2.21-2.427 0-1.44 1.03-2.427 2.21-2.427s2.209.986 2.209 2.427c0 1.422-1.03 2.428-2.21 2.428m-8.558-6.41c-2.172 0-3.933 1.687-3.933 4.001 0 2.296 1.76 4.002 3.933 4.002s3.932-1.688 3.932-4.002-1.76-4.001-3.932-4.001m0 6.41c-1.18 0-2.21-1.005-2.21-2.427 0-1.44 1.03-2.427 2.21-2.427s2.21.986 2.21 2.427c0 1.422-1.013 2.428-2.21 2.428m-10.168-5.177v1.687h3.97c-.113.948-.43 1.65-.9 2.125-.58.587-1.479 1.233-3.07 1.233-2.454 0-4.344-2.01-4.344-4.495s1.891-4.533 4.344-4.533c1.329 0 2.284.53 2.996 1.214l1.18-1.195c-.994-.967-2.323-1.707-4.176-1.707-3.353 0-6.162 2.788-6.162 6.183s2.81 6.183 6.162 6.183c1.816 0 3.165-.607 4.25-1.745 1.105-1.12 1.442-2.694 1.442-3.965a6 6 0 0 0-.093-1.062zm41.608 1.308c-.318-.892-1.329-2.541-3.352-2.541s-3.69 1.612-3.69 4.001c0 2.238 1.667 4.002 3.877 4.002 1.798 0 2.828-1.119 3.258-1.764l-1.328-.91c-.45.664-1.05 1.1-1.93 1.1s-1.497-.399-1.891-1.214l5.224-2.22zm-5.318 1.347c-.037-1.537 1.18-2.333 2.04-2.333.694 0 1.255.342 1.461.854zm-4.251 3.85h1.723V15.575h-1.723zm-2.808-6.847h-.056c-.393-.474-1.123-.891-2.06-.891-1.966 0-3.745 1.764-3.745 4.001s1.797 3.983 3.745 3.983c.936 0 1.666-.417 2.06-.91h.056v.569c0 1.537-.806 2.351-2.097 2.351-1.05 0-1.705-.777-1.967-1.422l-1.497.645c.43 1.062 1.573 2.37 3.463 2.37 2.023 0 3.727-1.213 3.727-4.153v-7.188h-1.63zm-1.966 5.52c-1.18 0-2.172-1.006-2.172-2.409s.993-2.427 2.172-2.427c1.161 0 2.097 1.025 2.097 2.427 0 1.384-.937 2.409-2.097 2.409m22.377-10.394h-4.12v11.721h1.723V22.86h2.397c1.91 0 3.782-1.404 3.782-3.642s-1.872-3.641-3.782-3.641m.055 5.653h-2.434v-4.022h2.434c1.274 0 2.023 1.08 2.023 2.01-.018.91-.748 2.011-2.023 2.011m10.6-1.69c-1.236 0-2.528.55-3.052 1.803l1.517.645c.337-.645.936-.854 1.573-.854.899 0 1.798.55 1.816 1.517v.114c-.318-.19-.973-.456-1.797-.456-1.648 0-3.315.93-3.315 2.637 0 1.575 1.348 2.58 2.846 2.58 1.162 0 1.798-.532 2.191-1.157h.056v.91h1.666v-4.495c-.018-2.067-1.535-3.243-3.501-3.243m-.206 6.412c-.562 0-1.349-.285-1.349-.986 0-.91.974-1.252 1.817-1.252.748 0 1.104.17 1.573.398a2.08 2.08 0 0 1-2.041 1.84m9.718-6.145-1.966 5.064h-.056l-2.04-5.064h-1.854l3.071 7.093-1.742 3.964h1.798l4.699-11.057zm-15.429 7.491h1.723V15.575h-1.723zM45.629 10.081v1.74h-.717V10.8h-3.294v1.021h-.716v-1.74h.535q.268-.376.395-1.082.128-.712.128-1.546V5.99h3.14v4.092zm-1.28 0V6.708h-1.646v.873q0 .753-.12 1.398a3.9 3.9 0 0 1-.349 1.102zm4.321.826a2.5 2.5 0 0 1-1.266-.329 2.44 2.44 0 0 1-.898-.914 2.57 2.57 0 0 1-.321-1.27q0-.692.321-1.263a2.44 2.44 0 0 1 2.163-1.25q.696 0 1.259.336.57.336.897.914.328.57.328 1.263t-.328 1.27q-.321.578-.89.914-.57.33-1.266.33m0-.719q.474 0 .87-.228.394-.228.622-.632.228-.41.228-.934t-.228-.927a1.64 1.64 0 0 0-.623-.639 1.7 1.7 0 0 0-.87-.228q-.475 0-.87.228a1.7 1.7 0 0 0-.63.639 1.86 1.86 0 0 0-.228.927q0 .524.228.934a1.71 1.71 0 0 0 1.5.86m5.54.718q-.698 0-1.272-.329a2.4 2.4 0 0 1-.904-.907 2.54 2.54 0 0 1-.328-1.277q0-.699.328-1.277.328-.577.904-.907.575-.33 1.272-.33.542 0 .984.202.449.202.79.585l-.535.518a1.6 1.6 0 0 0-.55-.437q-.3-.148-.69-.148-.48 0-.883.222a1.64 1.64 0 0 0-.63.631 1.84 1.84 0 0 0-.234.941q0 .538.235.948.234.403.629.625.402.22.884.221.802 0 1.366-.672l.542.524a2.44 2.44 0 0 1-1.908.867m3.716-4.199h-1.339v-.72h3.428v.72h-1.339V10.8h-.75zm3.331 4.2a.9.9 0 0 1-.422-.088v-.732a.85.85 0 0 0 .402.12q.18 0 .288-.066a.63.63 0 0 0 .194-.27l.167-.349-1.593-3.534h.837l1.118 2.667h.04L63.41 5.99h.837l-1.835 4.045q-.201.45-.489.665-.28.21-.67.209m3.645-4.92h3.569V10.8h-.75V6.708h-2.07V10.8h-.75zm4.662 0h.75v1.995h2.223V5.99h.743v4.81h-.743V8.697H70.31V10.8h-.75zm6.99 4.918a2.5 2.5 0 0 1-1.266-.329 2.45 2.45 0 0 1-.897-.914 2.57 2.57 0 0 1-.321-1.27q0-.692.321-1.263a2.45 2.45 0 0 1 2.163-1.25q.696 0 1.259.336.57.336.897.914.328.57.328 1.263t-.328 1.27q-.321.578-.89.914-.57.33-1.266.33m0-.719q.475 0 .87-.228t.623-.632a1.9 1.9 0 0 0 .228-.934q0-.524-.228-.927a1.64 1.64 0 0 0-.623-.639 1.7 1.7 0 0 0-.87-.228q-.475 0-.87.228a1.7 1.7 0 0 0-.63.639 1.86 1.86 0 0 0-.227.927q0 .524.227.934a1.71 1.71 0 0 0 1.5.86m4.91-4.2h1.802q.38 0 .703.168.327.168.522.463.194.296.194.652t-.18.618q-.174.262-.463.397v.04q.361.128.583.423.227.296.227.693t-.207.705a1.4 1.4 0 0 1-.55.484 1.7 1.7 0 0 1-.75.168h-1.88zm1.768 2.016a.68.68 0 0 0 .516-.202.64.64 0 0 0 .006-.92.64.64 0 0 0-.495-.202H82.21v1.324zm.114 2.096q.341 0 .542-.215a.695.695 0 0 0-.007-.994q-.207-.215-.562-.215H82.21V10.1z"/><path fill="#FFD900" d="M29.513 21.86c2.865-1.594 5.037-2.808 5.225-2.902.598-.323 1.217-1.176 0-1.84-.394-.208-2.51-1.384-5.225-2.901l-3.763 3.85z"/><path fill="#F43249" d="M25.75 18.067 13.765 30.3c.281.038.599-.038.973-.246.787-.436 9.12-5.045 14.775-8.193z"/><path fill="#00EE76" d="m25.75 18.066 3.763-3.83S15.581 6.534 14.738 6.08a1.44 1.44 0 0 0-.991-.19z"/><path fill="#00D3FF" d="M25.75 18.067 13.747 5.89c-.487.114-.9.55-.9 1.44v21.53c0 .816.32 1.403.918 1.46z"/></g><defs><clipPath id="a"><path fill="#fff" d="M4 0h121v36H4z"/></clipPath><filter id="b" width="129" height="44" x="0" y="0" color-interpolation-filters="sRGB" filterUnits="userSpaceOnUse"><feFlood flood-opacity="0" result="BackgroundImageFix"/><feColorMatrix in="SourceAlpha" result="hardAlpha" values="0 0 0 0 0 0 0 0 0 0 0 0 0 0 0 0 0 0 127 0"/><feOffset dy="4"/><feGaussianBlur stdDeviation="2"/><feComposite in2="hardAlpha" operator="out"/><feColorMatrix values="0 0 0 0 0 0 0 0 0 0 0 0 0 0 0 0 0 0 0.25 0"/><feBlend in2="BackgroundImageFix" result="effect1_dropShadow_0_86"/><feBlend in="SourceGraphic" in2="effect1_dropShadow_0_86" result="shape"/></filter></defs></svg>