<svg xmlns="http://www.w3.org/2000/svg" width="70" height="75" fill="none"><g clip-path="url(#a)"><path fill="#212529" d="M40.38 62.09q-.135 0-.134.137v.138q0 .137.134.137h17.668q.201 0 .201-.138v-.137q0-.138-.2-.137h-2.075q-2.075 0-2.945-.757-.804-.755-1.339-2.474a542 542 0 0 1-6.224-21.17 2427 2427 0 0 1-5.688-21.308q-.402-1.444 0-2.406.4-.963 1.874-.963h4.015q.2 0 .2-.206v-.068q0-.138-.2-.138h-26.77q-.268 0-.268.138v.068q0 .207.268.207h4.952q1.338 0 1.339 1.237 0 .55-.134 1.1-.135.48-.469 1.443a329 329 0 0 1-1.472 3.78 816 816 0 0 1-1.673 4.4 812 812 0 0 0-1.674 4.399 1098 1098 0 0 1-1.405 3.711 223 223 0 0 1-2.61 6.599 139 139 0 0 0-2.275 6.186 69 69 0 0 0-1.674 5.499Q11.2 53.91 11.2 56.04q0 3.643 1.74 5.293t4.35 1.65q2.142 0 3.882-1.17 1.74-1.236 3.28-3.024a43 43 0 0 0 3.011-3.918 47 47 0 0 1 3.012-3.918q1.54-1.855 3.212-3.024 1.74-1.237 3.748-1.237 3.213 0 4.953 1.925a12 12 0 0 1 2.543 4.399q.536 1.512.803 2.886.334 1.375.67 2.475.132.618.066 1.306 0 .687-.401 1.237-.335.48-1.205.825-.803.344-2.209.344zM22.577 34.183q3.816 0 5.555 1.787 1.74 1.72 1.74 5.636v7.149a46 46 0 0 0-2.877 2.337 54 54 0 0 1-2.744 2.268 19.5 19.5 0 0 1-2.61 1.718q-1.272.62-2.544.62-1.874 0-3.413-1.17-1.54-1.236-1.54-4.055.001-1.718.536-3.918a87 87 0 0 1 1.339-4.536q.802-2.269 1.606-4.33a240 240 0 0 0 1.338-3.506zm2.61-16.634q.804-2.062 2.008-2.68a6.8 6.8 0 0 1 2.677-.688v11.96q0 4.056-1.673 5.843t-5.622 1.787h-3.48l2.008-5.362q1.005-2.75 1.874-5.017.87-2.27 1.405-3.85.603-1.58.804-1.993M41.92 41.95q.135.48.268 1.169.135.687.134 1.306.066.618-.067 1.168-.068.48-.402.688-.133.068-.468.068-.67 0-1.606-.275-.87-.343-2.41-.343-1.874 0-3.614.824a22 22 0 0 0-3.48 1.925v-6.873q0-3.987 1.606-5.706 1.674-1.718 5.622-1.718h2.342q.536 1.925 1.004 3.918zm-4.417-8.18q-3.815 0-5.555-1.855-1.673-1.857-1.673-5.774v-11.96q2.343.07 3.48 1.031 1.138.962 1.606 2.612.737 2.612 1.874 6.805t2.477 9.142z"/></g><defs><clipPath id="a"><path fill="#fff" d="M0 0h70v74.375H0z"/></clipPath></defs></svg>