<svg xmlns="http://www.w3.org/2000/svg" width="800" height="800" class="icon" viewBox="0 0 1024 1024"><path fill="#FDD821" d="M341.333 440.889a256 256 0 1 0 512 0 256 256 0 1 0-512 0"/><path fill="#B2181A" d="M597.333 184.889c141.383 0 256 114.617 256 256s-114.617 256-256 256-256-114.617-256-256 114.617-256 256-256m0 14.222c-133.532 0-241.777 108.245-241.777 241.778S463.8 682.667 597.333 682.667 839.111 574.42 839.111 440.889 730.866 199.11 597.333 199.11"/><path fill="#FA1C3D" d="M597.333 279.979c18.631 49.422 37.789 83.953 57.458 103.637 19.684 19.67 54.158 38.756 103.453 57.273-54.543 14.947-91.051 31.659-109.512 50.105-18.46 18.46-35.598 55.395-51.399 110.79C577.024 543.987 557.27 505.5 538.07 486.3s-53.077-34.332-101.646-45.411c52.068-20.053 87.182-39.14 105.316-57.273q27.221-27.221 55.594-103.637"/><path fill="#B2181A" d="M758.244 440.889c-54.543 14.947-91.051 31.659-109.512 50.105-18.46 18.46-35.598 55.395-51.399 110.79C577.024 543.987 557.27 505.5 538.07 486.3s-53.077-34.332-101.646-45.411c52.068-20.053 87.182-39.14 105.316-57.273q27.221-27.221 55.594-103.637c18.631 49.422 37.789 83.953 57.458 103.637 19.684 19.67 54.158 38.756 103.453 57.273M599.282 321.963l-1.792-4.04-.896 2.091c-14.834 34.02-29.654 58.51-44.8 73.657-14.322 14.322-37.29 28.644-69.12 43.278l-2.774 1.238.484.17c28.217 9.558 49.863 21.22 64.996 35.229l2.744 2.645c14.934 14.933 29.611 39.41 44.36 73.629l3.683 8.732.597-1.692c12.175-33.679 25.273-58.14 39.638-73.586l2.275-2.375c15.29-15.275 40.335-28.9 75.364-41.245l2.133-.754-5.376-2.474c-27.363-12.857-48.398-26.14-63.19-40.022l-2.872-2.773c-15.8-15.815-30.862-39.68-45.454-71.708"/><path fill="#FDD821" d="M184.889 568.889a256 256 0 1 0 512 0 256 256 0 1 0-512 0"/><path fill="#B2181A" d="M440.889 312.889c141.383 0 256 114.617 256 256s-114.617 256-256 256-256-114.617-256-256 114.617-256 256-256m0 14.222c-133.533 0-241.778 108.245-241.778 241.778S307.356 810.667 440.89 810.667 682.667 702.42 682.667 568.889 574.42 327.11 440.889 327.11"/><path fill="#FA1C3D" d="M440.889 407.979c18.631 49.422 37.788 83.953 57.458 103.637 19.683 19.67 54.158 38.756 103.452 57.273-54.542 14.947-91.05 31.659-109.511 50.105-18.46 18.46-35.598 55.395-51.4 110.79-20.308-57.798-40.063-96.284-59.263-115.484s-53.077-34.332-101.646-45.411c52.067-20.053 87.182-39.14 105.315-57.273q27.222-27.222 55.595-103.637"/><path fill="#B2181A" d="M601.8 568.889c-54.543 14.947-91.052 31.659-109.512 50.105-18.46 18.46-35.598 55.395-51.4 110.79-20.308-57.798-40.063-96.284-59.263-115.484s-53.077-34.332-101.646-45.411c52.067-20.053 87.182-39.14 105.315-57.273q27.222-27.222 55.595-103.637c18.631 49.422 37.788 83.953 57.458 103.637 19.683 19.67 54.158 38.756 103.452 57.273M442.836 449.963l-1.792-4.04-.896 2.091c-14.833 34.02-29.653 58.51-44.8 73.657-14.321 14.322-37.29 28.644-69.12 43.278l-2.773 1.238.484.17c28.216 9.558 49.863 21.22 64.995 35.229l2.745 2.645c14.933 14.933 29.61 39.41 44.36 73.629l3.683 8.732.597-1.692c12.174-33.679 25.273-58.14 39.637-73.586l2.276-2.375c15.289-15.275 40.334-28.9 75.363-41.245l2.134-.754-5.376-2.474c-27.364-12.857-48.398-26.14-63.19-40.022l-2.872-2.773c-15.801-15.815-30.863-39.68-45.455-71.708"/></svg>