<?xml version="1.0" standalone="no"?>
<!DOCTYPE svg PUBLIC "-//W3C//DTD SVG 20010904//EN"
 "http://www.w3.org/TR/2001/REC-SVG-20010904/DTD/svg10.dtd">
<svg version="1.0" xmlns="http://www.w3.org/2000/svg"
 width="700.000000pt" height="700.000000pt" viewBox="0 0 700.000000 700.000000"
 preserveAspectRatio="xMidYMid meet">
<metadata>
Created by potrace 1.14, written by Peter Selinger 2001-2017
</metadata>
<g transform="translate(0.000000,700.000000) scale(0.100000,-0.100000)"
fill="#000000" stroke="none">
<path d="M3379 6846 c-2 -2 -29 -7 -59 -10 -389 -46 -775 -327 -950 -690 -73
-152 -110 -280 -126 -433 -8 -80 -8 -1901 0 -1988 4 -38 9 -81 11 -95 3 -14 7
-35 9 -47 12 -60 52 -186 79 -248 166 -374 501 -647 898 -730 98 -21 137 -25
262 -25 249 -1 493 73 711 218 92 61 257 226 324 324 137 201 215 435 222 668
5 164 1 1881 -4 1925 -48 391 -241 711 -556 920 -127 85 -292 158 -402 179
-13 2 -34 7 -48 10 -14 3 -38 9 -55 12 -35 7 -310 16 -316 10z m271 -559 c173
-41 333 -148 434 -291 53 -76 80 -134 108 -233 22 -78 22 -82 22 -1018 0 -517
-3 -968 -7 -1001 -26 -223 -178 -438 -383 -542 -367 -186 -830 -16 -982 361
-57 143 -55 92 -56 1122 -1 696 2 969 10 1020 63 370 408 634 774 593 36 -4
72 -9 80 -11z"/>
<path d="M1190 4041 c-79 -24 -157 -100 -184 -177 -19 -56 -14 -276 9 -409 39
-226 98 -411 195 -610 114 -235 250 -426 439 -614 273 -273 608 -481 977 -606
163 -55 386 -107 513 -120 36 -4 69 -9 73 -11 5 -3 8 -180 8 -395 0 -304 -3
-389 -12 -389 -7 0 -93 -1 -191 -2 -172 -1 -180 -2 -235 -28 -179 -86 -217
-306 -78 -446 89 -88 59 -85 821 -82 l660 3 44 25 c90 52 151 152 151 251 0
97 -63 200 -150 244 -62 32 -76 33 -277 34 l-173 1 0 395 c0 217 3 394 8 393
7 -2 120 11 157 18 11 2 45 9 75 15 30 5 66 12 80 15 45 9 104 25 204 56 810
249 1439 881 1634 1639 29 112 40 165 48 224 2 17 6 48 9 70 16 122 17 264 1
317 -19 65 -79 139 -140 171 -59 31 -193 31 -252 0 -49 -26 -111 -92 -131
-142 -16 -37 -18 -54 -28 -206 -3 -49 -8 -106 -11 -125 -12 -79 -35 -184 -45
-201 -5 -11 -8 -19 -5 -19 2 0 -9 -36 -25 -81 -113 -317 -343 -615 -637 -826
-95 -68 -264 -165 -352 -201 -30 -13 -64 -27 -75 -32 -92 -43 -345 -112 -460
-125 -16 -2 -57 -8 -90 -12 -70 -9 -441 -9 -500 0 -22 4 -58 9 -80 12 -333 49
-702 208 -960 413 -392 312 -623 738 -650 1197 -9 150 -13 175 -35 220 -46 95
-142 155 -245 154 -33 0 -71 -4 -85 -8z"/>
</g>
</svg>
